<?xml version="1.0" encoding="UTF-8" standalone="no"?>
<!DOCTYPE svg PUBLIC "-//W3C//DTD SVG 1.1//EN" "http://www.w3.org/Graphics/SVG/1.1/DTD/svg11.dtd">
<svg width="100%" height="100%" viewBox="0 0 2048 2048" version="1.1" xmlns="http://www.w3.org/2000/svg" xmlns:xlink="http://www.w3.org/1999/xlink" xml:space="preserve" xmlns:serif="http://www.serif.com/" style="fill-rule:evenodd;clip-rule:evenodd;stroke-linejoin:round;stroke-miterlimit:2;">
    <g id="Less-rounded-corners" serif:id="Less rounded corners" transform="matrix(1.460755,0,0,1.460755,395.654796,334.510085)">
        <path d="M812.454,344.845C812.915,346.221 812.948,346.206 812.952,346.331C813.081,350.053 812.896,891.127 812.88,938.5C812.862,992.357 772.552,1017.728 740.518,1021.633C735.379,1022.259 735.35,1022.193 47.5,1022.193C18.321,1022.193 5.116,1024.7 1.914,1009.439C1.192,1005.996 1.671,900.935 1.714,891.5C1.735,887.017 2.707,887.295 7.436,882.438C13.368,876.346 13.488,876.551 19.436,870.438C23.097,866.676 159.074,730.901 175.866,713.859C214.103,675.05 214.691,675.721 253.018,637.012C256.215,633.783 256.839,636.666 270.285,649.723C282.012,661.11 301.593,680.967 304.294,683.706C307.828,687.291 335.322,715.173 348.653,728.344C380.215,759.524 380.896,765.068 391.464,764.024C393.412,763.832 394.126,763.761 409.7,747.692C443.546,712.77 456.487,700.236 551.36,605.36C611.359,545.36 671.359,485.359 731.358,425.359C768.751,387.723 768.955,388.083 806.359,350.36C810.923,345.757 810.681,345.447 812.454,344.845Z" style="fill:rgb(28,46,74);fill-opacity:1;"/>
        <path d="M302.99,361.042C289.948,348.041 290.093,348.047 276.78,335.209C264.181,323.059 259.665,314.93 249.5,319.5C247.76,320.282 194.779,374.505 189.586,379.588C181.98,387.031 67.941,501.816 51.734,517.74C4.253,564.389 1.515,571.037 1.53,565.494C1.591,392.829 1.653,220.165 1.714,47.5C1.714,18.596 -0.685,5.6 13.593,1.959C15.038,1.59 15.031,1.629 647.5,1.629C744.32,1.629 747.55,0.238 767.306,9.967C781.396,16.905 790.055,26.452 790.134,26.672C790.176,26.788 790.937,27.356 783.542,34.543C765.226,52.343 765.813,52.798 747.543,70.545C714.01,103.119 715.069,104.063 681.545,136.547C680.285,137.767 668.493,149.194 665.968,151.98C661.64,156.756 526.306,291.425 494.111,324.123C487.324,331.016 443.335,375.694 408.549,409.551C381.882,435.507 381.29,439.764 377.299,435.695C371.397,429.68 338.781,396.435 302.99,361.042Z" style="fill:rgb(28,46,74);fill-opacity:1;"/>
    </g>
    <g id="Arrow" transform="matrix(1.85136,0,0,1.85136,75.671336,200.818365)">
        <path d="M787.745,44.88C797.447,43.328 881.077,27.342 926.457,19.235C948.168,15.356 947.953,14.681 969.613,10.919C973.367,10.267 1013.811,3.242 1016.478,2.411C1020.679,1.103 1023.181,0.229 1022.248,4.476C1022.186,4.759 1012.809,54.261 1011.989,58.59C997.131,137.022 997.912,137.1 982.915,215.571C979.156,235.239 980.087,237.446 977.526,236.459C976.154,235.93 976.625,235.338 964.603,223.396C922.405,181.479 922.208,179.525 920.282,181.131C916.053,184.658 554.596,546.551 546.588,554.588C541.288,559.907 480.46,620.955 480.282,621.013C477.882,621.788 478.094,620.286 434.404,576.596C429.724,571.917 379.523,521.715 376.087,517.928C373.477,515.052 373.196,518.024 365.329,525.337C365.165,525.491 287.859,602.695 271.348,619.35C249.388,641.5 161.878,728.838 152.349,738.349C71.876,818.664 71.799,818.636 71.59,818.678C68.427,819.301 68.813,817.679 17.08,765.925C3.796,752.636 -0.061,751.024 3.03,748.05C4.09,747.029 252.358,498.721 274.037,477.038C315.07,435.998 314.647,435.683 372.306,378.297C375.941,374.679 377.661,380.427 382.933,385.065C385.868,387.647 448.675,450.884 454.376,456.623C457.88,460.151 457.812,460.111 461.375,463.627C465.933,468.126 469.654,471.907 470.368,472.632C473.41,475.723 473.895,472.794 484.557,462.553C497.534,450.089 543.051,404.21 548.11,399.11C583.273,363.667 754.22,192.796 761.123,186.118C790.906,157.309 789.778,156.288 819.559,127.555C821.509,125.673 843.101,104.84 843.376,103.456C843.681,101.925 838.954,97.584 821.58,80.419C809.195,68.183 809.53,67.976 797.192,55.812C789.253,47.985 788.168,48.558 787.745,44.88Z" style="fill:rgb(0,129,72);fill-opacity:1;"/>
    </g>
    <g transform="matrix(1.492859,0,0,1.492859,1294.238484,318.072578)">
        <path d="M1.983,1016.295C1.338,1012.808 1.406,1012.875 1.406,410.5C1.406,212.489 0.375,212.564 1.406,14.5C1.48,0.33 8.007,1.424 18.5,1.423C49.506,1.42 56.092,0.339 58.448,6.536C59.214,8.552 59.279,1015.838 58.412,1017.438C54.86,1023.996 44.696,1022.472 42.5,1022.473C7.951,1022.477 6.095,1023.633 1.983,1016.295Z" style="fill:rgb(82,103,125);fill-opacity:1;"/>
    </g>
</svg>
